<svg xmlns="http://www.w3.org/2000/svg" width="520" height="146" viewBox="0 0 520 146" role="img" aria-labelledby="title desc">
  <title id="title">StarNezz — Mecha Profile Views</title>
  <desc id="desc">A white, blue, red and gold robot helmet beside a futuristic profile views panel. The live visitor count is displayed below this artwork.</desc>
  <rect x="1" y="1" width="518" height="144" rx="12" fill="#0b1220" stroke="#334766" stroke-width="2"/>
  <path d="M16 1h180l-16 6H16z" fill="#f6c945"/>
  <path d="M324 139h180v6H310z" fill="#2563eb"/>
  <path d="M22 20h10M22 20v10M498 20h-10M498 20v10M22 126h10M22 126v-10M498 126h-10M498 126v-10" fill="none" stroke="#527093" stroke-width="2"/>
  <path d="M36 65l20-31h47l22 31-8 46H46z" fill="#172c50" stroke="#3678de"/>
  <path d="M61 48l19-13 20 13 10 40-15 29H65L50 88z" fill="#edf4fb" stroke="#90a6bc" stroke-width="2"/>
  <path d="M70 46L39 20l20 41 18-5M90 46l32-26-21 41-18-5" fill="#f6c945" stroke="#dca72c"/>
  <path d="M73 39h14l5 23-12 7-12-7z" fill="#2563eb"/>
  <path d="M56 69l23 6 25-6-7 17H63z" fill="#102038"/>
  <path d="M62 74l14 4-1 5-11-3M98 74l-14 4 1 5 11-3" fill="#5fffd0"/>
  <path d="M77 84h6l6 17-9 11-9-11z" fill="#ef4444"/>
  <path d="M59 89l11 3-5 15-8-9M101 89l-11 3 5 15 8-9" fill="#90a6bc"/>
  <path d="M69 99h5M86 99h5M68 104h5M87 104h5" stroke="#34455b" stroke-width="2"/>
  <path d="M143 26v94" stroke="#334766"/>
  <text x="167" y="42" font-family="Arial,sans-serif" font-size="11" letter-spacing="3" fill="#f6c945">STARNEZZ / VISITOR SYSTEM</text>
  <text x="166" y="78" font-family="Arial,sans-serif" font-size="29" font-weight="bold" letter-spacing="1" fill="#edf4fb">PROFILE VIEWS</text>
  <circle cx="172" cy="105" r="4" fill="#5fffd0"/>
  <text x="184" y="109" font-family="Arial,sans-serif" font-size="11" letter-spacing="2" fill="#91abc7">PILOT ACCESS · COUNTER BELOW</text>
  <path d="M458 23h8v9h-8z" fill="#ef4444"/><path d="M470 23h8v9h-8z" fill="#f6c945"/>
</svg>
